<svg fill="none" height="1024" viewBox="0 0 1024 1024" width="1024" xmlns="http://www.w3.org/2000/svg"><path d="m912 512c0 70.215-18.482 139.192-53.59 200l-346.41-200z" fill="#f45542"/><path d="m858.387 712.04c-35.114 60.804-85.615 111.293-146.427 146.393l-199.96-346.433z" fill="#dd3242"/><path d="m711.963 858.431c-60.811 35.101-129.791 53.576-200.005 53.569l.042-400z" fill="#af2f79"/><path d="m112 512c0 70.215 18.482 139.192 53.59 200l346.41-200z" fill="#2656ab"/><path d="m165.613 712.04c35.114 60.804 85.615 111.293 146.427 146.393l199.96-346.433z" fill="#7943a3"/><path d="m312.037 858.431c60.811 35.101 129.791 53.576 200.005 53.569l-.042-400z" fill="#a23ca2"/><path d="m112 512c0-70.215 18.482-139.192 53.59-200l346.41 200z" fill="#019a85"/><path d="m165.613 311.96c35.114-60.804 85.615-111.293 146.427-146.393l199.96 346.433z" fill="#01ae5c"/><path d="m312.037 165.569c60.811-35.101 129.791-53.576 200.005-53.569l-.042 400z" fill="#a1cf49"/><path d="m912 512c0-70.215-18.482-139.192-53.59-200l-346.41 200z" fill="#f97827"/><path d="m858.387 311.96c-35.114-60.804-85.615-111.293-146.427-146.393l-199.96 346.433z" fill="#fca313"/><path d="m711.963 165.569c-60.811-35.101-129.791-53.576-200.005-53.569l.042 400z" fill="#ffe503"/></svg>