<svg id="Capa_1" enable-background="new 0 0 504.504 504.504" height="512" viewBox="0 0 504.504 504.504" width="512" xmlns="http://www.w3.org/2000/svg"><g><path d="m301.258 28.994 152.604 152.604-293.935 293.936c-9.763 9.763-25.592 9.763-35.355 0l-117.25-117.249c-9.763-9.763-9.763-25.592 0-35.355z" fill="#fdf5f5"/><path d="m468.001 195.739-293.937 293.938c-9.758 9.758-25.59 9.765-35.355 0l-21.213-21.213c9.765 9.765 25.597 9.758 35.355 0l293.937-293.937z" fill="#f1ece8"/><path d="m314.249 4.393 164.214 164.214c5.858 5.858 5.858 15.355 0 21.213l-236.428 236.43c-5.858 5.858-15.355 5.858-21.213 0l-164.215-164.215c-5.858-5.858-5.858-15.355 0-21.213l75.849-75.849 61.884-47.742 37.07-51.212 61.625-61.625c5.859-5.858 15.356-5.858 21.214-.001z" fill="#b5e9f7"/><path d="m492.602 203.963-236.428 236.428c-5.855 5.855-15.351 5.862-21.213 0l-19.863-19.862c5.855 5.855 15.358 5.855 21.213 0l236.428-236.428c5.862-5.862 5.855-15.359 0-21.213l19.862 19.863c5.863 5.861 5.863 15.35.001 21.212z" fill="#8fe0f4"/><path d="m247.492 406.238c-1.919 0-3.839-.732-5.304-2.196l-74.615-74.615c-2.929-2.93-2.929-7.678 0-10.607 2.93-2.928 7.678-2.928 10.607 0l74.615 74.615c2.929 2.93 2.929 7.678 0 10.607-1.464 1.463-3.384 2.196-5.303 2.196z" fill="#fde9a3"/><path d="m274.024 379.706c-1.919 0-3.839-.732-5.304-2.196l-37.625-37.625c-2.929-2.93-2.929-7.678 0-10.607 2.93-2.928 7.678-2.928 10.607 0l37.625 37.625c2.929 2.93 2.929 7.678 0 10.607-1.464 1.463-3.384 2.196-5.303 2.196z" fill="#fde9a3"/><path d="m231.41 66.019 179.705 179.706-76.552 79.001-22.401 19.951-179.708-179.702z" fill="#fdf5f5"/><path d="m301.6 291.087h139.94v28.09h-139.94z" fill="#f1ece8" transform="matrix(.707 -.707 .707 .707 -106.931 352.111)"/></g></svg>