<svg id="Capa_1" enable-background="new 0 0 512 512" height="512" viewBox="0 0 512 512" width="512" xmlns="http://www.w3.org/2000/svg"><path d="m7.493 451.556c-4.216-.078-7.57-3.559-7.492-7.774 1.24-67.032 12.037-122.535 61.951-192.02 2.459-3.424 7.228-4.206 10.655-1.747 3.424 2.46 4.206 7.23 1.746 10.655-47.602 66.266-57.899 119.301-59.085 183.395-.078 4.214-3.559 7.569-7.775 7.491z" fill="#e7b467"/><path d="m502.661 198.497c-.368 1.507-.814 3.009-1.348 4.502-8.29 23.169-33.792 35.232-56.962 26.942-14.637-5.237-24.833-17.345-28.272-31.393-.621-2.535-3.918-3.158-5.409-1.016-3.083 4.429-5.574 9.391-7.315 14.82-8.867 27.649 5.416 57.922 32.401 68.64 29.406 11.68 62.391-3.4 72.962-32.943 6.154-17.197 3.325-35.423-6.057-49.552z" fill="#a698a6"/><path d="m502.661 198.497c-.368 1.507-.814 3.009-1.348 4.502-4.142 11.578-12.583 20.382-22.883 25.259.125 6.558-.908 13.249-3.249 19.791-6.087 17.014-19.614 29.215-35.604 34.287 28.388 8.992 59.026-6.016 69.141-34.287 6.154-17.197 3.325-35.423-6.057-49.552z" fill="#8f818f"/><path d="m501.818 167.072c-38.328-97.128-173.542-134.77-302.009-84.075-113.934 44.959-184.28 144.296-172.007 233.949.54 3.945 4.706 6.259 8.339 4.628 62.537-28.081 129.139-31.567 184.132-12.816 2.61.89 4.558-2.388 2.531-4.259-24.438-22.552-36.601-51.22-29.799-78.29.879-3.497 2.054-6.866 3.496-10.103 11.967 17.479 30.663 33.026 53.874 44.108 1.959.935 4.307-.021 5.01-2.075 10.811-31.58 35.265-61.973 70.177-82.864 66.103-39.555 144.552-30.069 175.224 21.186 5.721 9.561 9.374 19.901 11.104 30.653.766-20.431-2.434-40.688-10.072-60.042z" fill="#e0dde2"/><path d="m511.889 227.115c.766-20.431-2.434-40.688-10.071-60.043-7.493-18.987-18.702-35.69-32.826-49.915-73.879-38.771-186.361-29.635-287.555 30.918-75.216 45.008-128.333 108.941-150.967 173.06 1.615 1.045 3.718 1.316 5.672.439 62.537-28.081 129.139-31.567 184.132-12.816 2.594.885 4.571-2.377 2.556-4.235-24.455-22.556-36.629-51.234-29.825-78.314.571-2.271 1.267-4.488 2.079-6.65.565-1.504 2.583-1.763 3.537-.47 12.001 16.261 29.87 30.677 51.751 41.125 1.966.939 4.312-.03 5.018-2.091 10.814-31.574 35.266-61.959 70.171-82.846 66.103-39.555 144.552-30.069 175.224 21.186 5.721 9.56 9.374 19.9 11.104 30.652z" fill="#c8c1c9"/><path d="m501.818 167.072c-32.238-81.697-133.024-121.299-240.684-101.655 77.816.108 145.772 32.042 177.665 88.521 26.38 5.92 48.68 20.289 61.986 42.524 5.721 9.561 9.374 19.901 11.104 30.653.767-20.432-2.433-40.689-10.071-60.043z" fill="#c8c1c9"/><path d="m501.818 167.072c-7.492-18.987-18.702-35.69-32.826-49.915-26.268-13.785-57.42-21.507-91.206-23.022 25.859 14.739 46.942 34.886 61.013 59.803 26.38 5.92 48.68 20.289 61.986 42.524 5.721 9.561 9.374 19.901 11.104 30.653.767-20.432-2.433-40.689-10.071-60.043z" fill="#a698a6"/></svg>