<svg width="54" height="38" viewBox="0 0 54 38" fill="none" xmlns="http://www.w3.org/2000/svg">
<path d="M29.7439 16.6001L29.5982 15.6107L29.5982 15.6107L29.7439 16.6001ZM33.5247 14.6583L33.9859 15.5456L33.9859 15.5456L33.5247 14.6583ZM37.2236 16.7684C37.6248 17.148 38.2577 17.1305 38.6373 16.7293C39.0168 16.3282 38.9993 15.6952 38.5981 15.3157L37.2236 16.7684ZM24.8047 15.3637C25.1644 15.7252 25.8863 16.328 26.7506 16.8164C27.585 17.2878 28.7372 17.7591 29.8896 17.5894L29.5982 15.6107C29.1199 15.6812 28.4574 15.4836 27.7345 15.0751C27.0415 14.6836 26.4636 14.1954 26.2224 13.953L24.8047 15.3637ZM29.8896 17.5894C31.0944 17.412 31.9718 16.9607 32.6458 16.5081C32.9714 16.2895 33.2583 16.0638 33.4785 15.8957C33.7182 15.7125 33.8664 15.6077 33.9859 15.5456L33.0635 13.771C32.7692 13.924 32.4926 14.132 32.2644 14.3063C32.0165 14.4956 31.7922 14.6723 31.5308 14.8477C31.0309 15.1835 30.4317 15.488 29.5982 15.6107L29.8896 17.5894ZM33.9859 15.5456C34.6755 15.1872 35.1622 15.2571 35.6083 15.4725C36.1471 15.7325 36.6238 16.2009 37.2236 16.7684L38.5981 15.3157C38.0898 14.8346 37.3611 14.0977 36.4777 13.6713C35.5018 13.2002 34.3494 13.1026 33.0635 13.771L33.9859 15.5456Z" fill="#FB32E7"/>
<path d="M26.1391 4.47682C21.7294 2.80831 20 2.5 14.5 2.5C8.5 4 3.68984 5.80653 1 7.57616V36.8477C4.18112 35.3897 9 33.6381 14.5 32.5C18.5522 32.0427 24.3323 33.0828 27 34.5C29 35.5625 33.8225 36.2088 37.5 36C41.1775 35.7912 53 31.6821 53 31.6821V2.06622C48.9711 3.69494 40.2583 7.57616 33.7152 6.54304" stroke="white" stroke-width="2" stroke-linejoin="round"/>
<path d="M8.92048 4.13245C8.34653 6.31346 7.48231 10.8378 8.23175 13.0861C8.9205 15.1523 10.9867 16.5298 13.0529 15.8411C15.1192 15.1523 16.1523 16.1854 15.8079 17.9073C15.4635 19.6291 14.4304 21.6954 18.9072 22.3841C23.3841 23.0728 20.9735 26.1722 19.2516 27.5497C17.5298 28.9271 14.4304 27.894 13.0529 28.9271C11.6482 29.9807 12.3642 31.3377 15.1192 32.7152" stroke="white" stroke-linecap="round"/>
<path d="M1 20.3179C2.26269 19.7439 4.51258 19.3536 4.78808 22.3841C5.13245 26.1722 3.06623 28.2384 4.78808 27.894C6.50993 27.5497 7.63454 23.725 9.2649 23.0728C10.9868 22.3841 11.6755 25.8278 8.92053 29.2715C6.71656 32.0265 6.39514 34.0927 6.50993 34.7815" stroke="white" stroke-linecap="round"/>
<path d="M41.6358 5.50993C41.1766 6.31347 40.7404 7.9894 42.6689 9.64238C45.0795 11.7086 43.0132 14.1192 41.6358 15.8411C40.2583 17.5629 41.2914 20.3179 43.3576 19.6291C45.4238 18.9404 46.6687 17.9073 48.5232 17.9073C50.5894 17.9073 52.3113 19.9735 53 21.351" stroke="white" stroke-linecap="round"/>
<path d="M25.4503 33.404C25.9095 31.9117 27.3099 28.9272 29.2384 28.9272C31.649 28.9272 30.9603 29.6159 33.7152 29.6159C36.4702 29.6159 36.1258 25.4835 38.192 25.1391C40.2583 24.7947 45.7682 27.8941 46.4569 30.3047C47.0079 32.2331 46.6865 33.6336 46.4569 34.0927" stroke="white" stroke-linecap="round"/>
<path d="M25.2181 14.4904L25.2103 14.5699L33.1479 8.37834L34.1109 3.28595L30.0044 0.915051L26.2138 4.37499L25.2181 14.4904ZM25.2181 14.4904L29.6871 6.81581" stroke="white" stroke-width="1.5" stroke-linejoin="round"/>
<circle cx="29.6871" cy="6.81581" r="1.37748" transform="rotate(30 29.6871 6.81581)" fill="white"/>
</svg>
