<svg id="Capa_1" enable-background="new 0 0 512 512" height="512" viewBox="0 0 512 512" width="512" xmlns="http://www.w3.org/2000/svg"><g><path d="m210.711 221.028c45.576-30.157 87.256-88.376 103.501-168.991 6.92-34.337 40.116-56.956 74.456-50.052.657.132 1.318.268 1.982.407 60.109 12.635 107.067 59.593 119.702 119.702.14.664.275 1.325.407 1.982 6.903 34.34-15.715 67.537-50.052 74.456-80.615 16.245-138.834 57.926-168.991 103.501l-58.622-23.87z" fill="#d8aa8b"/><path d="m430.067 43.381c-20.36 7.08-49.968 33.29-66.185 58.33-38.067 58.785-85.36 111.399-125.707 146.783l-31.234-4.414 3.764-23.056c45.579-30.152 87.26-88.378 103.507-168.983 6.916-34.341 40.116-56.959 74.457-50.058.656.134 1.312.268 1.975.41 30.055 6.312 56.824 21.217 77.654 42.046-6.707-6.707-19.339-7.475-37.068-1.461-.388.135-.775.269-1.163.403z" fill="#c6865c"/><path d="m309.848 321.154c-38.89-40.94-78.805-80.856-119.745-119.745-16.823-15.98-43.54-15.65-59.601 1.095-8.52 8.883-15.679 19.128-21.476 30.734 54.289 58.373 110.62 114.704 168.993 168.993 11.606-5.797 21.851-12.956 30.734-21.476 16.745-16.061 17.075-42.779 1.095-59.601z" fill="#f6e266"/><path d="m167.499 239.777c-8.816 9.189-16.291 19.734-22.402 31.613-12.125-12.617-24.146-25.338-36.07-38.156 5.791-11.603 12.953-21.85 21.478-30.734 16.06-16.746 42.77-17.073 59.597-1.095 10.173 9.666 20.278 19.399 30.331 29.184-17.349-8.482-38.901-5.441-52.934 9.188z" fill="#eab14d"/><path d="m263.104 487.366c-6.103 5.85-12.669 11.208-19.727 16.105-2.251 1.565-4.553 3.093-6.908 4.553-8.295 5.165-19.063 4.039-26.195-2.646-51.921-48.627-102.627-98.484-152.126-149.548-17.58-18.132-34.997-36.412-52.271-54.85-6.677-7.125-7.81-17.901-2.646-26.195 6.059-9.71 12.937-18.586 20.658-26.635 21.56-22.469 57.406-22.916 79.987-1.468 54.939 52.197 108.5 105.757 160.697 160.697 21.447 22.581 21.007 58.435-1.469 79.987z" fill="#4d5961"/><path d="m263.104 487.366c-6.103 5.85-12.669 11.208-19.727 16.105-55.563-44.591-127.347-118.066-158.182-150.314-7.747-8.102-21.035-6.786-27.047 2.674-17.58-18.132-34.997-36.412-52.271-54.85-6.677-7.125-7.81-17.901-2.646-26.195 6.059-9.71 12.937-18.586 20.658-26.635 21.56-22.469 57.406-22.916 79.987-1.468 54.939 52.197 108.5 105.757 160.697 160.697 21.447 22.58 21.007 58.434-1.469 79.986z" fill="#454545"/><path d="m314.106 382.587c-60.225-63.4-122.037-125.213-185.437-185.437-26.051-24.746-67.426-24.235-92.298 1.696-13.194 13.756-24.28 29.621-33.257 47.595 84.072 90.396 171.306 177.63 261.702 261.702 17.973-8.977 33.838-20.063 47.595-33.257 25.931-24.873 26.442-66.248 1.695-92.299z" fill="#d8aa8b"/><path d="m126.654 289.449c-13.847 14.428-25.502 31.047-34.959 49.864-29.907-30.577-59.433-61.535-88.579-92.872 8.973-17.975 20.062-33.834 33.253-47.591 24.876-25.934 66.252-26.441 92.306-1.699 28.125 26.724 55.945 53.754 83.445 81.105-27.099-16.172-62.774-12.469-85.466 11.193z" fill="#c6865c"/></g></svg>